<svg xmlns="http://www.w3.org/2000/svg" viewBox="0 0 64 64">
  <defs>
    <linearGradient id="shipstation-grad" x1="0%" y1="0%" x2="100%" y2="100%">
      <stop offset="0%" style="stop-color:#84c225;stop-opacity:1" />
      <stop offset="100%" style="stop-color:#5a9a1f;stop-opacity:1" />
    </linearGradient>
  </defs>
  <rect width="64" height="64" rx="8" fill="url(#shipstation-grad)"/>
  <g fill="#fff">
    <path d="M16 20h32c1.1 0 2 .9 2 2v4c0 1.1-.9 2-2 2H16c-1.1 0-2-.9-2-2v-4c0-1.1.9-2 2-2zm0 2v4h32v-4H16z"/>
    <path d="M20 28h24v2H20zM18 32h28v2H18z"/>
    <path d="M16 36h32c1.1 0 2 .9 2 2v4c0 1.1-.9 2-2 2H16c-1.1 0-2-.9-2-2v-4c0-1.1.9-2 2-2zm0 2v4h32v-4H16z"/>
    <circle cx="22" cy="24" r="2"/>
    <circle cx="42" cy="24" r="2"/>
    <circle cx="22" cy="40" r="2"/>
    <circle cx="42" cy="40" r="2"/>
  </g>
</svg>
